<?xml version="1.0" standalone="no"?>
<!DOCTYPE svg PUBLIC "-//W3C//DTD SVG 20010904//EN"
 "http://www.w3.org/TR/2001/REC-SVG-20010904/DTD/svg10.dtd">
<svg version="1.0" xmlns="http://www.w3.org/2000/svg"
 width="1024.000000pt" height="834.000000pt" viewBox="0 0 1024.000000 834.000000"
 preserveAspectRatio="xMidYMid meet">

<g transform="translate(0.000000,834.000000) scale(0.100000,-0.100000)"
fill="#000000" stroke="none">
<path d="M0 4170 l0 -4170 5120 0 5120 0 0 4170 0 4170 -5120 0 -5120 0 0
-4170z m5400 3495 c492 -76 876 -236 1213 -507 142 -114 398 -356 438 -415 28
-40 30 -47 19 -74 -15 -35 -12 -36 -132 36 -544 331 -1296 504 -2028 466 -459
-24 -855 -109 -1258 -271 -53 -21 -98 -37 -101 -35 -2 3 7 9 20 14 13 5 36 14
52 20 15 6 27 15 27 21 0 6 4 9 9 5 5 -3 43 8 83 24 40 17 67 30 60 30 -7 1
-22 -4 -33 -10 -11 -6 -25 -8 -32 -6 -7 3 -4 8 8 12 11 4 44 19 73 31 29 13
57 24 63 24 13 0 79 29 97 43 9 7 6 13 -15 24 -19 10 -28 10 -33 2 -5 -7 -9
-5 -13 5 -4 10 -1 16 8 16 17 0 17 0 19 58 2 32 -2 42 -13 43 -15 1 40 19 66
21 8 1 9 7 2 20 -8 14 -6 20 6 25 13 4 14 8 4 14 -10 6 -9 10 6 15 30 12 54
41 43 52 -7 7 -3 14 11 22 12 6 19 15 16 21 -6 9 1 13 48 23 15 4 25 11 22 16
-3 5 11 12 31 16 19 3 38 12 41 20 2 7 10 11 17 8 7 -3 19 2 26 11 7 8 27 15
44 15 24 0 27 3 16 10 -12 7 -8 10 15 10 27 1 28 2 8 10 -46 19 -351 -53 -456
-107 -16 -8 -31 -12 -33 -10 -8 7 160 75 288 117 208 69 374 101 693 134 87 9
454 -4 555 -19z m-1550 -240 c0 -2 -13 -11 -30 -20 -38 -19 -40 -11 -2 9 31
17 32 18 32 11z m70 -271 c0 -8 -4 -12 -10 -9 -5 3 -10 10 -10 16 0 5 5 9 10
9 6 0 10 -7 10 -16z m-210 -204 c-8 -5 -22 -9 -30 -9 -10 0 -8 3 5 9 27 12 43
12 25 0z m2025 -53 c183 -32 469 -96 360 -81 -61 9 -37 -4 51 -27 148 -38 440
-136 431 -145 -1 -2 -63 17 -137 42 -183 62 -355 107 -545 143 -380 73 -514
84 -840 71 -464 -19 -749 -81 -1059 -231 -30 -15 -36 -15 -21 -4 23 19 174 96
225 114 19 8 53 21 75 30 22 10 81 28 130 40 50 12 106 26 125 31 40 9 193 36
290 49 36 5 209 8 385 7 318 -3 321 -3 530 -39z m432 -93 c-3 -3 -12 -4 -19
-1 -8 3 -5 6 6 6 11 1 17 -2 13 -5z m40 -10 c-3 -3 -12 -4 -19 -1 -8 3 -5 6 6
6 11 1 17 -2 13 -5z m-164 -11 c-7 -2 -19 -2 -25 0 -7 3 -2 5 12 5 14 0 19 -2
13 -5z m207 -3 c8 -5 11 -10 5 -10 -5 0 -17 5 -25 10 -8 5 -10 10 -5 10 6 0
17 -5 25 -10z m-110 -22 c18 -5 13 -6 -15 -2 -22 3 -47 10 -55 15 -16 10 24 3
70 -13z m-817 -125 c-24 -2 -62 -2 -85 0 -24 2 -5 4 42 4 47 0 66 -2 43 -4z
m144 -9 c-3 -3 -12 -4 -19 -1 -8 3 -5 6 6 6 11 1 17 -2 13 -5z m96 -11 c-7 -2
-21 -2 -30 0 -10 3 -4 5 12 5 17 0 24 -2 18 -5z m464 -89 c-3 -3 -12 -4 -19
-1 -8 3 -5 6 6 6 11 1 17 -2 13 -5z m-212 -14 c224 -15 384 -37 860 -116 168
-28 465 -45 465 -26 0 6 -8 15 -17 21 -16 9 -15 11 8 19 14 6 43 22 64 36 43
30 54 31 80 12 18 -13 18 -15 1 -41 -29 -44 -97 -67 -221 -75 -60 -4 -94 -8
-75 -10 19 -1 38 -2 43 -1 4 0 7 -7 8 -16 0 -16 2 -15 10 2 6 13 7 0 3 -39 -5
-43 -3 -60 7 -66 10 -7 10 -11 -1 -25 -12 -15 -12 -16 6 -13 16 2 19 -3 18
-33 -1 -32 2 -36 20 -32 17 4 17 2 -4 -9 -28 -15 -27 -14 -16 -80 9 -50 14
-56 34 -36 23 23 12 -3 -13 -30 -14 -15 -25 -38 -25 -52 0 -14 -6 -32 -12 -39
-11 -10 -10 -11 5 -6 12 5 17 2 17 -11 0 -34 -12 -64 -25 -64 -22 0 -27 -32
-8 -53 17 -20 17 -20 -2 -14 -18 6 -19 6 -3 -6 13 -10 16 -23 11 -50 -5 -36 9
-53 20 -24 3 7 6 5 6 -5 1 -13 -7 -18 -23 -18 -14 0 -28 -5 -32 -12 -5 -8 -2
-9 9 -5 9 3 19 2 22 -3 4 -6 -1 -10 -9 -10 -9 0 -16 -7 -16 -15 0 -8 -5 -15
-11 -15 -5 0 -8 -4 -4 -9 3 -5 1 -12 -5 -16 -5 -3 -15 -15 -20 -25 -8 -16 -8
-18 5 -14 8 4 15 10 15 14 0 4 11 10 25 12 14 3 25 1 25 -3 0 -5 -7 -9 -15 -9
-8 0 -29 -19 -46 -42 -20 -28 -30 -35 -27 -22 5 18 2 22 -17 20 -31 -4 -47
-16 -41 -31 3 -8 0 -16 -7 -18 -7 -2 -9 -7 -5 -11 3 -4 15 -2 27 5 25 16 35 8
25 -23 -7 -22 -7 -22 -14 -3 -6 17 -7 17 -13 -7 -6 -21 -16 -28 -57 -38 -42
-10 -52 -10 -64 3 -8 8 -13 16 -11 18 2 2 -6 4 -18 4 -12 1 -33 5 -47 9 -39
13 -22 2 84 -53 100 -53 286 -172 307 -198 7 -7 -46 23 -117 69 -76 49 -195
112 -293 155 -305 137 -550 207 -1101 317 -707 140 -1000 222 -1153 319 -65
42 -92 69 -118 119 -37 72 -20 147 50 217 96 96 301 163 596 196 146 16 623
19 830 5z m298 3 c-7 -2 -19 -2 -25 0 -7 3 -2 5 12 5 14 0 19 -2 13 -5z m958
-240 c-8 -15 -10 -15 -11 -2 0 17 10 32 18 25 2 -3 -1 -13 -7 -23z m9 -37 c0
-3 -4 -8 -10 -11 -5 -3 -10 -1 -10 4 0 6 5 11 10 11 6 0 10 -2 10 -4z m-2873
-78 c-3 -8 -6 -5 -6 6 -1 11 2 17 5 13 3 -3 4 -12 1 -19z m62 -90 c68 -91 157
-145 381 -233 129 -50 319 -107 336 -101 8 3 13 2 10 -2 -7 -12 295 -93 324
-87 20 4 21 4 5 -3 -17 -8 -16 -9 10 -16 137 -32 718 -224 734 -243 3 -3 -3
-3 -14 1 -167 61 -553 181 -785 245 -431 117 -569 160 -705 220 -119 53 -198
98 -244 138 -47 41 -111 126 -111 147 0 12 2 10 59 -66z m2846 -59 c-10 -15
-25 -10 -19 6 4 8 10 12 15 9 5 -3 7 -10 4 -15z m-4345 1 c0 -6 -32 -11 -72
-11 -40 -1 -63 -4 -50 -6 24 -5 29 -18 10 -26 -8 -3 -5 -6 5 -6 15 -1 16 -3 5
-14 -20 -20 -46 -27 -52 -14 -4 7 -4 0 -1 -15 6 -30 -10 -39 -19 -10 -2 9 -2
-1 1 -23 31 -228 359 -474 863 -648 259 -89 688 -188 1225 -282 422 -74 616
-119 830 -190 200 -67 372 -163 407 -228 7 -13 -7 -6 -36 20 -26 23 -71 55
-99 71 -84 47 -295 124 -417 152 -30 7 -79 19 -108 26 -30 7 -60 10 -67 8 -7
-3 -16 -1 -20 5 -7 13 -61 15 -69 3 -2 -4 12 -9 32 -10 20 -2 43 -8 51 -15 8
-7 16 -11 18 -9 1 1 15 1 31 1 24 -2 23 -2 -8 -9 l-35 -7 43 -2 c26 0 41 -5
37 -11 -3 -5 -1 -10 4 -10 6 0 11 7 11 15 0 8 5 15 10 15 6 0 10 -5 10 -11 0
-6 7 -9 15 -5 8 3 15 2 15 -3 0 -5 -15 -12 -32 -16 -32 -7 -33 -7 -8 -14 14
-4 28 -3 31 2 4 5 16 6 28 2 12 -4 21 -2 21 4 0 6 5 11 11 11 5 0 7 -4 4 -10
-4 -6 5 -10 19 -10 14 0 26 -5 26 -10 0 -6 -15 -8 -40 -4 -27 4 -40 3 -40 -5
0 -6 12 -11 26 -11 14 0 37 -9 51 -20 24 -19 24 -20 5 -20 -11 0 -22 6 -24 12
-3 9 -26 12 -78 9 -52 -2 -75 1 -81 10 -4 7 -11 10 -16 6 -12 -13 19 -27 62
-27 34 -1 37 -3 17 -10 -12 -5 -30 -6 -39 -3 -11 4 -14 3 -9 -5 10 -17 48 -15
72 3 10 8 28 14 39 14 17 -1 17 -2 3 -6 -10 -2 -18 -9 -18 -15 0 -6 -3 -8 -6
-5 -4 3 -16 1 -28 -6 -19 -11 -17 -12 24 -19 45 -6 45 -6 -5 -2 -27 2 -69 5
-92 7 -37 3 -43 1 -43 -15 0 -11 -9 -22 -20 -25 -11 -3 -20 -10 -20 -15 0 -6
-16 -8 -35 -6 -27 3 -34 1 -30 -9 2 -8 -2 -16 -10 -19 -8 -4 -12 -10 -9 -15 3
-6 -6 -7 -22 -3 -23 6 -26 4 -21 -11 5 -12 3 -16 -7 -12 -10 4 -16 -2 -19 -16
-4 -19 -4 -18 -6 4 -1 31 -24 43 -52 29 -23 -13 -26 -22 -4 -14 8 4 15 1 15
-5 0 -6 -4 -11 -10 -11 -5 0 -8 -12 -6 -27 2 -16 2 -23 -1 -16 -6 15 -81 22
-87 7 -3 -7 6 -10 26 -8 17 2 34 2 38 -1 10 -6 -15 -104 -29 -118 -13 -13 -15
5 -2 19 11 12 22 84 12 84 -5 0 -12 -14 -17 -32 -5 -17 -16 -34 -23 -36 -10
-3 -12 0 -8 12 4 9 2 16 -2 16 -5 0 -11 -6 -14 -12 -2 -7 -8 -10 -12 -6 -5 5
0 17 10 28 20 22 9 27 -15 7 -21 -17 -22 -59 -1 -52 12 3 16 -3 17 -23 1 -25
-2 -28 -28 -24 -34 5 -37 -5 -5 -19 21 -9 20 -9 -5 -6 -16 3 -28 0 -28 -5 0
-5 -12 -7 -27 -6 -18 2 -27 -1 -25 -9 2 -14 -14 -18 -21 -5 -2 4 -2 1 -1 -6 6
-24 -16 -64 -32 -58 -8 3 -12 2 -9 -4 3 -6 13 -10 21 -10 8 0 13 -4 9 -10 -3
-5 -11 -7 -19 -4 -7 3 -18 -7 -25 -22 -16 -36 -24 -25 -10 14 9 25 8 35 -4 46
-8 8 -17 12 -21 9 -3 -3 2 -12 12 -20 12 -10 14 -16 5 -19 -7 -3 -13 -12 -13
-20 0 -8 -9 -14 -19 -14 -11 0 -23 -5 -26 -11 -4 -6 -13 -8 -19 -6 -7 3 -13
-1 -13 -9 0 -8 9 -14 19 -14 11 0 16 -4 13 -10 -3 -5 -18 -7 -33 -4 -15 3 -39
-1 -55 -9 -26 -14 -26 -14 25 -11 29 2 59 3 66 4 6 0 12 7 12 15 0 8 4 15 9
15 5 0 16 3 25 6 25 10 18 -9 -11 -31 -15 -10 -44 -20 -66 -21 -44 -2 -58 -11
-37 -24 8 -5 11 -12 7 -17 -5 -4 -12 -1 -18 7 -7 13 -10 13 -18 1 -6 -9 -11
-10 -15 -2 -9 13 -36 15 -36 2 0 -5 8 -12 18 -14 9 -3 -4 -5 -30 -4 -31 0 -54
-5 -66 -16 -23 -21 -32 -21 -47 0 -11 15 -12 14 -12 -10 0 -23 3 -26 22 -23
13 2 36 12 51 22 20 14 26 15 22 4 -2 -8 -27 -22 -54 -32 l-49 -17 235 -3 235
-3 -260 -3 c-251 -2 -603 16 -765 38 -109 15 -345 48 -420 59 -63 10 -62 10
25 5 50 -3 115 -9 146 -14 123 -22 367 -50 419 -48 l55 2 -48 3 c-26 2 -45 8
-42 14 8 12 -2 11 -27 -2 -15 -8 -19 -8 -14 0 5 7 -5 12 -26 13 l-33 1 33 4
c17 2 32 9 32 15 0 7 -20 9 -61 5 -35 -4 -58 -3 -54 2 3 5 -1 12 -7 15 -7 4
-3 4 10 2 12 -2 22 -1 22 4 0 11 -54 20 -58 9 -2 -5 -13 -8 -25 -8 -17 1 -18
2 -4 6 9 2 17 11 17 20 0 13 -3 13 -15 3 -12 -10 -15 -9 -15 4 0 10 -4 15 -9
11 -11 -6 -61 15 -61 27 0 11 17 10 25 -2 3 -5 16 -9 28 -9 20 1 20 2 2 6 -11
3 -24 9 -30 14 -5 5 -18 9 -30 9 -11 0 -32 14 -47 30 -27 31 -63 45 -38 15 7
-9 10 -19 6 -22 -9 -10 -27 18 -23 37 1 8 10 14 20 14 14 -2 13 2 -6 22 -12
13 -27 24 -33 24 -12 0 -54 34 -54 43 0 4 8 4 18 0 14 -5 13 -3 -3 10 -18 15
-21 15 -34 -1 -12 -15 -13 -15 -8 -1 3 9 0 22 -6 28 -8 8 -7 11 6 11 9 0 17 5
17 11 0 6 -7 9 -14 6 -10 -4 -13 -1 -10 7 3 7 -11 32 -30 55 -33 39 -34 43
-20 69 7 15 14 34 13 42 0 10 -3 8 -9 -5 -8 -19 -9 -19 -9 2 -1 12 -7 24 -13
26 -9 4 -9 8 -3 14 14 11 18 63 5 63 -5 0 -10 -7 -10 -17 0 -9 -2 -14 -5 -11
-4 3 -3 17 0 31 7 28 31 27 38 -1 2 -10 4 2 4 25 -1 33 -4 40 -14 31 -19 -15
-16 2 4 24 11 13 12 18 3 18 -10 0 -10 3 -1 14 8 10 9 16 1 21 -5 3 -10 13
-10 21 0 8 4 13 8 10 8 -5 9 -1 16 73 4 42 21 66 39 54 4 -3 0 -11 -10 -19
-17 -13 -17 -14 0 -8 10 4 24 22 32 41 19 45 19 59 2 44 -8 -6 -17 -8 -20 -4
-4 3 3 11 16 18 12 6 31 16 42 22 11 6 37 18 58 27 25 11 37 22 37 36 0 11 7
20 15 20 8 0 15 4 15 10 0 5 -7 7 -15 4 -8 -4 -15 -1 -15 6 0 6 8 10 18 9 31
-3 43 1 37 11 -3 6 -1 10 4 10 15 0 13 -11 -4 -34 -17 -23 -19 -36 -5 -36 6 0
10 7 10 15 0 8 9 15 21 15 12 0 18 4 13 11 -5 9 4 10 32 5 21 -4 50 -9 64 -12
48 -9 -10 12 -195 71 -99 32 -202 69 -230 83 -27 14 -53 25 -57 24 -5 -1 -8 3
-8 9 0 6 -6 9 -14 6 -8 -3 -20 1 -26 8 -7 8 -53 35 -103 60 -214 108 -406 270
-474 400 -59 114 -64 228 -10 240 70 15 167 18 167 5z m4324 -122 c4 -17 2
-28 -4 -28 -5 0 -10 14 -10 32 0 36 4 35 14 -4z m-4455 -83 c0 -5 -4 -3 -9 5
-5 8 -9 22 -9 30 0 16 17 -16 18 -35z m4468 -25 c-2 -29 -17 -24 -17 6 0 14 4
23 9 19 6 -3 9 -14 8 -25z m-4418 -54 c-3 -3 -11 5 -18 17 -13 21 -12 21 5 5
10 -10 16 -20 13 -22z m4386 24 c-3 -5 -13 -10 -21 -10 -8 0 -12 5 -9 10 3 6
13 10 21 10 8 0 12 -4 9 -10z m-1668 -126 c-3 -3 -12 -4 -19 -1 -8 3 -5 6 6 6
11 1 17 -2 13 -5z m110 -30 c-3 -3 -12 -4 -19 -1 -8 3 -5 6 6 6 11 1 17 -2 13
-5z m100 -30 c-3 -3 -12 -4 -19 -1 -8 3 -5 6 6 6 11 1 17 -2 13 -5z m1443 -28
c0 -2 -7 -7 -16 -10 -8 -3 -12 -2 -9 4 6 10 25 14 25 6z m-1210 -46 c18 -12 2
-12 -25 0 -13 6 -15 9 -5 9 8 0 22 -4 30 -9z m-1690 -15 c14 -8 21 -14 15 -14
-5 0 -21 6 -35 14 -14 8 -20 14 -15 14 6 0 21 -6 35 -14z m1818 -30 c29 -9 51
-19 48 -22 -5 -5 -126 37 -126 44 0 3 6 3 13 1 6 -3 36 -13 65 -23z m980 -7
c-2 -6 -10 -14 -16 -16 -7 -2 -10 2 -6 12 7 18 28 22 22 4z m-863 -39 c22 -10
29 -16 15 -13 -28 7 -80 33 -65 33 6 0 28 -9 50 -20z m-1760 -7 c-3 -3 -11 0
-18 7 -9 10 -8 11 6 5 10 -3 15 -9 12 -12z m75 -22 c8 -5 11 -10 5 -10 -5 0
-17 5 -25 10 -8 5 -10 10 -5 10 6 0 17 -5 25 -10z m1760 0 c8 -5 11 -10 5 -10
-5 0 -17 5 -25 10 -8 5 -10 10 -5 10 6 0 17 -5 25 -10z m-30 -15 c14 -8 21
-14 15 -14 -5 0 -21 6 -35 14 -14 8 -20 14 -15 14 6 0 21 -6 35 -14z m827 -11
c-3 -3 -12 -4 -19 -1 -8 3 -5 6 6 6 11 1 17 -2 13 -5z m-47 -28 c0 -3 -4 -8
-10 -11 -5 -3 -10 -1 -10 4 0 6 5 11 10 11 6 0 10 -2 10 -4z m26 -22 c-11 -8
-25 -14 -30 -13 -6 0 -1 5 12 11 12 6 22 16 22 21 0 6 3 7 7 3 5 -4 -1 -14
-11 -22z m-566 -50 c0 -2 -13 2 -30 11 -16 9 -30 18 -30 21 0 2 14 -2 30 -11
17 -9 30 -18 30 -21z m60 -41 c0 -7 -39 17 -46 28 -3 6 5 3 20 -6 14 -10 26
-19 26 -22z m110 -78 c49 -42 90 -78 90 -81 0 -8 -23 10 -80 61 -25 22 -61 53
-80 68 -19 15 -32 27 -28 27 4 0 48 -34 98 -75z m-3031 -70 c-3 -2 -14 -6 -25
-8 -10 -2 -27 -7 -37 -12 -10 -4 -21 -5 -24 -1 -8 8 36 25 66 25 13 1 22 -1
20 -4z m-99 -19 c0 -3 -4 -8 -10 -11 -5 -3 -10 -1 -10 4 0 6 5 11 10 11 6 0
10 -2 10 -4z m-50 -106 c-8 -5 -17 -7 -19 -4 -3 3 1 9 9 14 8 5 17 7 19 4 3
-3 -1 -9 -9 -14z m-54 -76 c-4 -9 -9 -15 -11 -12 -3 3 -3 13 1 22 4 9 9 15 11
12 3 -3 3 -13 -1 -22z m-6 -44 c0 -5 -5 -10 -11 -10 -5 0 -7 5 -4 10 3 6 8 10
11 10 2 0 4 -4 4 -10z m-1 -57 c11 -8 12 -12 4 -13 -7 0 -13 -10 -13 -22 0
-12 -3 -18 -7 -15 -3 4 -11 0 -17 -8 -9 -13 -11 -10 -11 14 0 16 4 33 8 37 4
5 5 0 1 -11 -7 -18 -6 -19 10 -6 12 10 14 17 6 25 -5 5 -10 17 -9 26 0 13 1
13 6 0 4 -8 13 -20 22 -27z m-52 5 c-3 -8 -6 -5 -6 6 -1 11 2 17 5 13 3 -3 4
-12 1 -19z m20 -110 c-3 -8 -6 -5 -6 6 -1 11 2 17 5 13 3 -3 4 -12 1 -19z
m2183 -18 c-20 -13 -33 -13 -25 0 3 6 14 10 23 10 15 0 15 -2 2 -10z m-143
-36 c-3 -3 -12 -4 -19 -1 -8 3 -5 6 6 6 11 1 17 -2 13 -5z m-60 -30 c-3 -3
-12 -4 -19 -1 -8 3 -5 6 6 6 11 1 17 -2 13 -5z m108 -4 c3 -5 1 -10 -4 -10 -6
0 -11 5 -11 10 0 6 2 10 4 10 3 0 8 -4 11 -10z m-150 -20 c3 -5 1 -10 -4 -10
-6 0 -11 5 -11 10 0 6 2 10 4 10 3 0 8 -4 11 -10z m-1918 -47 c-3 -10 -5 -4
-5 12 0 17 2 24 5 18 2 -7 2 -21 0 -30z m1705 -19 c-6 -47 -22 -53 -19 -6 1
23 7 40 12 39 6 -2 8 -17 7 -33z m140 29 c-18 -3 -21 -8 -12 -17 8 -10 2 -20
-25 -41 -38 -28 -65 -28 -65 2 0 17 48 48 58 38 3 -2 -7 -10 -22 -16 -25 -12
-37 -39 -16 -39 17 0 61 44 56 56 -6 16 3 24 28 23 19 -2 19 -2 -2 -6z m128
-17 c0 -2 -7 -7 -16 -10 -8 -3 -12 -2 -9 4 6 10 25 14 25 6z m-250 -56 c0 -13
-7 -20 -19 -20 -11 0 -27 -10 -35 -22 -9 -12 -16 -17 -16 -11 0 16 29 43 46
43 8 0 14 7 14 15 0 8 2 15 5 15 3 0 5 -9 5 -20z m110 0 c0 -5 -5 -10 -11 -10
-5 0 -7 5 -4 10 3 6 8 10 11 10 2 0 4 -4 4 -10z m-1795 -50 c3 -5 1 -10 -4
-10 -6 0 -11 5 -11 10 0 6 2 10 4 10 3 0 8 -4 11 -10z m15 -40 c0 -5 -5 -10
-11 -10 -5 0 -7 5 -4 10 3 6 8 10 11 10 2 0 4 -4 4 -10z m1613 -15 c-10 -7
-20 -12 -21 -10 -7 7 23 33 31 28 5 -3 0 -11 -10 -18z m-76 -18 c1 -26 0 -28
-7 -12 -11 26 -12 45 -2 45 4 0 8 -15 9 -33z m-1488 -71 c-3 -3 -11 5 -18 17
-13 21 -12 21 5 5 10 -10 16 -20 13 -22z m1401 12 c0 -5 -11 -8 -25 -8 -14 0
-25 3 -25 8 0 4 11 7 25 7 14 0 25 -3 25 -7z m-1360 -39 c0 -6 -4 -7 -10 -4
-5 3 -10 11 -10 16 0 6 5 7 10 4 6 -3 10 -11 10 -16z m30 6 c0 -8 -4 -15 -10
-15 -5 0 -10 7 -10 15 0 8 5 15 10 15 6 0 10 -7 10 -15z m1280 6 c0 -5 -7 -11
-15 -15 -15 -5 -20 5 -8 17 9 10 23 9 23 -2z m33 -16 c-3 -8 -13 -15 -22 -14
-10 0 -11 2 -3 6 6 2 12 11 12 19 0 9 4 13 10 9 5 -3 7 -12 3 -20z m-83 -73
c0 -5 -7 -17 -16 -28 -14 -17 -15 -17 -10 -1 3 10 6 23 6 28 0 5 5 9 10 9 6 0
10 -4 10 -8z m-1135 -32 c3 -5 1 -10 -4 -10 -6 0 -11 5 -11 10 0 6 2 10 4 10
3 0 8 -4 11 -10z m62 -46 c-3 -3 -12 -4 -19 -1 -8 3 -5 6 6 6 11 1 17 -2 13
-5z m138 -74 c3 -5 -1 -10 -9 -10 -9 0 -16 5 -16 10 0 6 4 10 9 10 6 0 13 -4
16 -10z m1085 -54 c0 -2 -13 -6 -29 -8 -17 -2 -28 -1 -25 4 5 8 54 12 54 4z
m-712 -23 c-15 -2 -42 -2 -60 0 -18 2 -6 4 27 4 33 0 48 -2 33 -4z m159 -10
c-20 -2 -52 -2 -70 0 -17 2 0 4 38 4 39 0 53 -2 32 -4z m400 1 c-3 -3 -12 -4
-19 -1 -8 3 -5 6 6 6 11 1 17 -2 13 -5z m2427 -45 c-57 -60 -271 -198 -421
-273 -392 -195 -774 -307 -1223 -358 -249 -29 -743 -31 -955 -5 -172 21 -362
53 -475 78 -123 28 -290 81 -285 90 3 4 -4 5 -14 2 -11 -3 -28 0 -38 7 -16 10
-15 10 7 5 22 -5 23 -4 7 5 -10 7 -25 9 -33 6 -8 -3 -13 -2 -10 3 3 5 -6 12
-22 16 -35 8 -214 85 -227 97 -5 5 15 0 45 -12 313 -123 616 -196 1025 -244
123 -15 438 -15 690 1 66 4 139 7 163 7 23 1 42 4 42 9 0 4 9 7 21 7 12 0 17
4 13 11 -5 8 -1 8 14 0 13 -7 36 -8 68 -2 29 6 57 5 72 0 21 -8 23 -7 13 5
-10 12 -7 13 22 6 19 -4 41 -4 48 0 8 4 42 7 77 7 34 0 66 3 69 7 3 3 18 3 32
0 18 -4 22 -3 13 4 -9 6 -2 8 23 7 21 -1 51 1 69 6 17 4 72 17 121 28 281 64
651 220 895 380 82 53 180 131 180 144 0 5 3 7 7 3 4 -3 -11 -25 -33 -47z
m-2931 -56 c-7 -2 -19 -2 -25 0 -7 3 -2 5 12 5 14 0 19 -2 13 -5z m360 0 c-13
-2 -35 -2 -50 0 -16 2 -5 4 22 4 28 0 40 -2 28 -4z m-296 -9 c-3 -3 -12 -4
-19 -1 -8 3 -5 6 6 6 11 1 17 -2 13 -5z m980 0 c-3 -3 -12 -4 -19 -1 -8 3 -5
6 6 6 11 1 17 -2 13 -5z m-110 -10 c-3 -3 -12 -4 -19 -1 -8 3 -5 6 6 6 11 1
17 -2 13 -5z m-539 -11 c-21 -2 -55 -2 -75 0 -21 2 -4 4 37 4 41 0 58 -2 38
-4z m410 0 c-21 -2 -57 -2 -80 0 -24 2 -7 4 37 4 44 0 63 -2 43 -4z m-1588
-223 c8 -5 11 -10 5 -10 -5 0 -17 5 -25 10 -8 5 -10 10 -5 10 6 0 17 -5 25
-10z m1487 -376 c-3 -3 -12 -4 -19 -1 -8 3 -5 6 6 6 11 1 17 -2 13 -5z m-183
-38 c-7 -18 35 -14 47 5 7 11 9 11 9 -3 0 -18 16 -25 22 -10 2 5 16 12 32 16
23 6 27 4 23 -8 -5 -11 0 -16 13 -16 13 0 18 5 14 15 -5 11 -2 13 10 9 9 -3
13 -10 10 -15 -3 -5 2 -9 11 -9 11 0 15 -5 11 -16 -4 -12 -1 -14 14 -9 19 6
25 -3 21 -28 -1 -5 3 -6 9 -2 6 3 8 11 5 16 -4 5 -1 9 4 9 6 0 11 -4 11 -10 0
-5 9 -10 21 -10 11 0 18 -4 14 -9 -3 -5 0 -13 6 -16 5 -4 8 -13 6 -19 -3 -7
-1 -31 3 -55 6 -32 5 -41 -5 -37 -15 5 -55 -34 -55 -53 0 -11 3 -11 18 0 15
13 16 12 4 -3 -8 -10 -17 -17 -20 -16 -30 3 -72 -4 -67 -12 3 -5 -2 -10 -12
-10 -10 0 -29 -3 -42 -7 -17 -4 -22 -3 -17 5 5 8 -2 12 -21 11 -25 0 -26 -1
-8 -9 15 -7 16 -9 4 -9 -19 -1 -42 23 -32 32 3 4 1 7 -6 7 -8 0 -10 -7 -6 -20
6 -19 3 -20 -26 -15 -34 6 -58 20 -72 43 -7 10 -12 10 -23 1 -11 -9 -15 -8
-20 5 -3 9 -11 16 -18 16 -6 0 -20 8 -31 17 -16 12 -16 14 -3 10 10 -3 20 -2
23 3 4 6 -1 10 -9 10 -9 0 -16 5 -16 10 0 6 3 10 8 10 4 0 7 11 7 25 0 14 -4
23 -10 21 -5 -1 -9 -11 -7 -20 2 -9 -2 -24 -8 -34 -9 -15 -10 -14 -5 6 4 13 2
22 -4 22 -17 0 -13 21 7 37 9 7 13 12 7 11 -5 -2 -10 2 -10 7 0 6 4 9 9 7 5
-2 6 5 2 14 -4 12 -2 15 9 11 8 -4 17 -2 20 3 3 5 -5 11 -17 13 -20 4 -19 4 5
6 15 0 30 8 34 17 4 10 13 14 29 10 17 -5 28 0 41 18 18 24 36 26 27 2z m346
-80 c0 -3 -4 -8 -10 -11 -5 -3 -10 -1 -10 4 0 6 5 11 10 11 6 0 10 -2 10 -4z
m-3 -68 c-3 -8 -6 -5 -6 6 -1 11 2 17 5 13 3 -3 4 -12 1 -19z m-3416 -387 c65
-19 174 -63 186 -75 15 -14 -76 -4 -125 14 -113 43 -316 61 -386 34 -24 -9
-19 14 5 27 61 32 210 32 320 0z m6184 -36 c-3 -36 -4 -65 0 -65 4 0 28 17 53
38 l47 37 -33 -44 c-17 -25 -32 -50 -32 -57 0 -8 22 -15 58 -19 90 -10 91 -11
20 -19 -38 -4 -68 -10 -68 -13 0 -3 15 -24 33 -46 31 -40 28 -41 -23 -7 -31
21 -59 18 -80 -11 -15 -19 -18 -20 -23 -4 -4 9 -5 21 -1 26 9 15 -20 10 -44
-7 -29 -20 -28 -5 3 28 14 15 25 30 25 33 0 3 -46 6 -102 6 -85 1 -95 3 -58
10 25 4 71 8 103 8 31 1 57 5 57 10 0 4 -19 30 -42 57 l-43 49 50 -37 c28 -20
56 -34 62 -30 5 4 13 25 17 47 17 96 31 103 21 10z m-4296 26 c21 -14 -4 -23
-73 -27 -203 -12 -228 -12 -218 -2 30 30 254 52 291 29z m1174 -16 c31 -9 57
-21 57 -27 0 -5 -8 -7 -17 -4 -9 4 -63 12 -119 18 -123 13 -276 -1 -349 -32
-40 -17 -46 -18 -34 -4 54 65 313 93 462 49z m1437 -46 c0 -18 -65 -30 -148
-27 l-90 3 -12 -60 c-7 -33 -26 -114 -42 -180 -16 -66 -47 -203 -68 -305 -43
-202 -82 -358 -74 -295 3 22 12 67 19 100 24 98 103 479 132 630 l27 140 128
0 c70 0 128 -3 128 -6z m-2271 -55 c-29 -31 -109 -73 -127 -67 -7 3 10 16 38
29 28 13 63 33 77 44 36 28 41 25 12 -6z m301 1 c0 -3 -16 -23 -36 -45 -20
-22 -51 -68 -70 -102 -18 -35 -34 -56 -34 -48 0 21 66 129 103 168 31 32 37
36 37 27z m-2650 -25 c-13 -24 -2 -26 30 -3 26 18 25 21 4 -32 -5 -13 10 -15
102 -17 60 -1 82 -3 49 -5 -33 -1 -84 -5 -113 -9 -46 -5 -53 -8 -49 -24 3 -13
0 -17 -9 -13 -8 3 -14 -1 -14 -11 0 -9 -6 -13 -14 -10 -8 3 -16 -2 -19 -13 -4
-15 -6 -15 -12 6 l-8 23 -13 -28 c-7 -16 -13 -23 -13 -16 -1 10 -6 10 -22 2
-19 -10 -20 -10 -10 9 16 29 14 31 -21 20 -17 -5 -34 -7 -36 -4 -5 5 43 25 59
25 6 0 4 6 -4 14 -7 8 -40 18 -73 22 l-59 8 72 6 c78 7 94 13 75 32 -17 17
-15 33 2 19 11 -9 15 -9 19 1 3 10 8 9 18 -4 13 -16 15 -16 39 2 31 25 33 25
20 0z m-446 -32 c-4 -7 -18 -27 -31 -44 -13 -17 -23 -36 -23 -42 0 -6 -4 -13
-9 -17 -20 -12 22 86 42 100 26 18 30 19 21 3z m1929 -78 c-48 -95 -70 -117
-33 -33 19 43 68 123 76 123 1 0 -18 -41 -43 -90z m663 -51 c-56 -112 -111
-177 -177 -209 l-44 -21 30 23 c86 66 118 105 171 211 30 59 58 105 63 102 5
-3 -14 -50 -43 -106z m3740 86 c-11 -8 -30 -15 -43 -15 -14 0 -26 -7 -29 -17
-27 -95 -135 -238 -205 -273 -77 -40 -81 -18 -6 27 102 61 193 189 185 259
l-4 34 61 0 c55 -1 58 -2 41 -15z m-5959 -456 c73 -69 162 -183 151 -194 -2
-2 -21 19 -43 48 -21 29 -81 90 -132 137 -92 83 -173 172 -173 191 0 6 26 -16
58 -48 32 -32 94 -92 139 -134z m969 166 c69 -20 126 -72 152 -137 22 -54 19
-51 -31 29 -21 33 -41 51 -85 71 -50 24 -69 27 -159 27 -57 0 -103 1 -103 2 0
1 15 7 33 12 49 14 138 13 193 -4z m2946 -1 c32 -9 58 -20 58 -24 0 -4 -24 -1
-52 7 -70 19 -221 13 -265 -10 -18 -10 -58 -38 -89 -63 -31 -26 -53 -41 -49
-34 10 16 93 93 114 104 66 39 186 47 283 20z m3168 -7 l35 -16 -35 7 c-19 4
-80 7 -135 7 -86 0 -106 -4 -145 -24 -134 -71 -205 -178 -274 -412 -29 -98
-35 -76 -7 27 31 113 77 211 133 282 29 36 53 69 53 73 0 12 56 52 94 66 49
18 233 12 281 -10z m494 -11 c33 -22 95 -81 66 -62 -34 22 -118 66 -125 66 -4
0 -3 -4 0 -10 3 -5 1 -10 -4 -10 -6 0 -11 4 -11 9 0 5 -3 16 -6 25 -5 13 -1
14 26 6 18 -5 42 -16 54 -24z m441 25 c13 -5 -5 -10 -54 -14 -84 -7 -153 -36
-219 -93 -24 -20 -46 -33 -50 -29 -4 4 4 16 18 26 14 11 38 32 54 47 66 60
182 90 251 63z m-3015 -15 c-15 -8 -70 -17 -133 -20 -97 -5 -107 -4 -107 12 0
15 14 17 133 19 118 2 129 1 107 -11z m493 4 c-19 -18 -82 -30 -149 -30 -61 0
-73 -3 -77 -17 -3 -10 -29 -121 -57 -248 -29 -126 -56 -234 -60 -239 -5 -4 9
75 31 175 21 101 46 225 55 274 l18 90 123 1 c68 1 120 -2 116 -6z m607 0 c0
-13 -67 -30 -120 -30 -60 1 -33 17 47 29 32 5 61 9 66 10 4 0 7 -3 7 -9z m332
-10 c-17 -9 -57 -14 -108 -15 l-81 0 -63 -270 c-63 -273 -85 -358 -74 -280 6
43 99 479 113 532 5 17 5 35 0 40 -4 4 48 8 116 8 114 0 122 -1 97 -15z m1674
-11 c3 -6 -5 -3 -20 6 -14 10 -26 19 -26 22 0 7 39 -17 46 -28z m-5006 -237
c42 -59 56 -93 18 -47 -18 22 -71 81 -118 130 -86 90 -140 155 -140 169 0 11
207 -207 240 -252z m-1684 237 c59 -15 57 -32 -3 -24 -64 9 -75 13 -68 25 8
13 16 13 71 -1z m474 0 c0 -6 -6 -9 -13 -6 -7 3 -21 -1 -32 -9 -22 -16 -140
-20 -130 -4 3 6 25 10 48 11 23 0 51 4 62 9 29 12 65 12 65 -1z m65 1 c-3 -5
-11 -10 -16 -10 -6 0 -7 5 -4 10 3 6 11 10 16 10 6 0 7 -4 4 -10z m499 -10
c-14 -14 -172 -26 -159 -12 11 11 51 18 125 20 30 1 41 -1 34 -8z m5053 -42
c-3 -7 -5 -2 -5 12 0 14 2 19 5 13 2 -7 2 -19 0 -25z m-17 -89 c-16 -92 -92
-400 -97 -395 -2 2 17 98 43 212 26 115 49 219 52 232 2 13 6 21 9 18 2 -2 -1
-33 -7 -67z m-2739 -11 c-33 -170 -92 -433 -100 -441 -4 -4 5 52 20 125 16 73
41 191 56 262 15 71 29 124 31 118 2 -6 -1 -35 -7 -64z m-4209 29 c-12 -12
-44 -60 -72 -106 -27 -46 -50 -82 -50 -79 0 31 97 191 122 201 22 9 22 8 0
-16z m5168 3 c-6 -11 -30 -100 -55 -197 -24 -98 -44 -172 -44 -165 -2 33 73
349 87 365 20 23 25 22 12 -3z m-1748 -12 c17 17 33 15 18 -3 -19 -23 -4 -45
32 -46 19 -1 25 -3 13 -6 -11 -2 -30 -6 -43 -9 l-23 -5 28 -37 28 -37 -34 28
c-31 26 -34 27 -47 10 -13 -17 -13 -17 -14 0 0 28 -20 19 -21 -10 l-1 -28 -7
25 c-4 14 -13 24 -19 23 -7 -2 -12 4 -12 12 0 9 -6 18 -14 21 -8 3 -12 12 -9
20 4 12 8 12 21 2 14 -11 15 -9 9 21 -7 33 -7 34 12 17 22 -20 41 -14 41 12 1
15 2 15 15 -2 12 -16 18 -17 27 -8z m3138 -25 c13 3 16 0 13 -13 -3 -13 4 -21
24 -28 l28 -10 -26 -1 c-45 -2 -56 -20 -62 -107 -11 -156 -70 -362 -123 -432
-35 -45 -82 -66 -128 -58 -51 10 -58 28 -7 20 60 -10 121 29 155 99 52 106
115 442 88 469 -15 15 -16 48 -2 48 6 0 11 10 11 23 1 18 2 19 6 4 3 -12 11
-17 23 -14z m-4822 0 c-10 -2 -26 -2 -35 0 -10 3 -2 5 17 5 19 0 27 -2 18 -5z
m4718 -14 c19 -21 19 -21 -11 -8 -42 18 -53 29 -29 29 12 0 29 -9 40 -21z
m-3536 -18 c-33 -47 -77 -149 -104 -241 -14 -47 -25 -75 -25 -64 -1 31 46 188
69 233 19 38 67 101 77 101 2 0 -5 -13 -17 -29z m367 23 c-3 -3 -12 -4 -19 -1
-8 3 -5 6 6 6 11 1 17 -2 13 -5z m4058 -64 c3 -5 2 -10 -4 -10 -5 0 -13 5 -16
10 -3 6 -2 10 4 10 5 0 13 -4 16 -10z m-5915 -140 c-13 -49 -25 -88 -27 -86
-2 2 6 45 18 95 13 50 25 89 27 86 2 -2 -6 -45 -18 -95z m1927 8 c-2 -13 -4
-5 -4 17 -1 22 1 32 4 23 2 -10 2 -28 0 -40z m3948 -282 c-36 -143 -70 -266
-76 -275 -8 -13 -10 -13 -6 -1 2 8 35 141 73 295 38 154 70 271 72 260 2 -12
-27 -137 -63 -279z m-3980 112 c-31 -125 -83 -240 -120 -264 -42 -27 -115 -30
-145 -6 l-25 21 45 -13 c55 -16 99 -4 141 39 35 34 59 95 96 247 15 64 29 108
31 98 2 -10 -8 -65 -23 -122z m382 70 c-3 -8 -6 -5 -6 6 -1 11 2 17 5 13 3 -3
4 -12 1 -19z m-2322 -83 c-10 -36 -20 -63 -22 -61 -2 2 4 33 13 70 10 36 20
63 22 61 3 -2 -4 -34 -13 -70z m3674 -24 c-6 -34 -14 -60 -16 -57 -2 2 1 32 8
65 6 34 14 60 16 57 2 -2 -1 -32 -8 -65z m898 27 c-3 -7 -5 -2 -5 12 0 14 2
19 5 13 2 -7 2 -19 0 -25z m-1360 -60 c-3 -8 -6 -5 -6 6 -1 11 2 17 5 13 3 -3
4 -12 1 -19z m-4253 -35 c-10 -42 -34 -97 -39 -91 -4 4 5 35 30 106 8 23 15
12 9 -15z m5213 5 c-3 -8 -6 -5 -6 6 -1 11 2 17 5 13 3 -3 4 -12 1 -19z
m-3574 -82 c75 -41 116 -55 199 -65 l63 -8 -61 -2 c-118 -2 -314 94 -314 154
0 12 8 7 26 -14 14 -17 54 -46 87 -65z m2604 72 c-3 -8 -6 -5 -6 6 -1 11 2 17
5 13 3 -3 4 -12 1 -19z m-5759 -14 c76 -71 300 -144 398 -129 50 7 99 43 108
80 4 14 11 25 16 25 33 0 -25 -76 -76 -101 -93 -45 -289 -6 -421 83 -35 24
-63 49 -63 55 0 19 8 16 38 -13z m3576 -16 c-7 -25 -35 -61 -41 -54 -6 6 30
76 40 76 4 0 5 -10 1 -22z m4422 0 c-29 -140 -39 -179 -43 -174 -4 4 18 124
33 179 8 25 15 21 10 -5z m-2286 -67 c-20 -39 -68 -64 -112 -58 -57 8 -72 26
-16 20 46 -5 92 11 117 41 18 22 24 20 11 -3z m987 -33 c-3 -8 -6 -5 -6 6 -1
11 2 17 5 13 3 -3 4 -12 1 -19z m-5435 -18 c36 -22 98 -26 130 -9 11 6 22 8
25 5 4 -3 -11 -13 -33 -22 -51 -21 -109 -13 -143 20 -31 31 -23 33 21 6z
m1617 4 c-26 -14 -61 -17 -96 -8 -42 11 -23 19 49 20 64 1 69 0 47 -12z m3632
-4 c18 0 28 -4 24 -10 -9 -15 -49 -12 -71 6 -17 14 -17 15 -1 10 10 -3 32 -6
48 -6z m-1371 -30 c0 -5 -9 -10 -21 -10 -11 0 -17 5 -14 10 3 6 13 10 21 10 8
0 14 -4 14 -10z m-4461 -56 c-13 -14 -33 -30 -44 -36 -11 -5 -3 7 17 26 43 41
63 49 27 10z m1221 -81 c-11 -17 -11 -17 -6 0 3 10 6 24 7 30 0 9 2 9 5 0 3
-7 0 -20 -6 -30z m5425 -23 c13 -6 15 -9 5 -9 -8 0 -22 4 -30 9 -18 12 -2 12
25 0z m1410 -10 c13 -6 15 -9 5 -9 -8 0 -22 4 -30 9 -18 12 -2 12 25 0z
m-9295 -320 c0 -5 -25 -10 -55 -10 l-55 0 0 -40 0 -40 50 0 c28 0 50 -4 50
-10 0 -5 -20 -10 -45 -10 l-45 0 0 -55 0 -55 50 0 c28 0 50 -4 50 -10 0 -6
-28 -10 -65 -10 l-65 0 0 125 0 125 65 0 c37 0 65 -4 65 -10z m4604 -4 c72
-30 97 -107 56 -174 -22 -35 -78 -65 -114 -60 -23 3 -22 -6 -18 163 2 95 7
100 76 71z m5256 -23 c0 -22 -2 -25 -10 -13 -13 20 -13 40 0 40 6 0 10 -12 10
-27z m30 2 c0 -14 -4 -25 -10 -25 -5 0 -10 11 -10 25 0 14 5 25 10 25 6 0 10
-11 10 -25z m-9120 -110 c0 -63 -4 -105 -10 -105 -5 0 -10 4 -10 9 0 5 -12 5
-28 -1 -51 -19 -106 6 -117 54 -14 55 68 99 126 68 17 -10 19 -7 19 35 0 25 5
45 10 45 6 0 10 -42 10 -105z m3070 0 c0 -63 -4 -105 -10 -105 -5 0 -10 4 -10
9 0 5 -12 5 -28 -1 -51 -19 -106 6 -117 54 -14 55 68 99 126 68 17 -10 19 -7
19 35 0 25 5 45 10 45 6 0 10 -42 10 -105z m576 59 c-3 -26 -6 -74 -6 -107 0
-45 -3 -58 -11 -50 -15 15 -2 203 13 203 7 0 8 -17 4 -46z m705 35 c15 -7 24
-7 34 1 8 6 16 7 19 2 3 -6 -1 -16 -10 -23 -12 -10 -22 -10 -47 -1 -22 8 -34
9 -44 1 -10 -9 -13 -8 -13 3 0 29 26 36 61 17z m499 -94 c0 -63 -4 -105 -10
-105 -5 0 -10 4 -10 9 0 5 -12 5 -28 -1 -51 -19 -106 6 -117 54 -14 55 68 99
126 68 17 -10 19 -7 19 35 0 25 5 45 10 45 6 0 10 -42 10 -105z m648 91 c-22
-16 -24 -66 -3 -66 8 0 15 -4 15 -10 0 -5 -7 -10 -15 -10 -12 0 -15 -13 -15
-55 0 -42 -3 -55 -15 -55 -12 0 -15 13 -15 56 0 46 -3 55 -15 50 -8 -3 -15 -1
-15 5 0 6 9 13 20 16 14 4 20 14 20 32 0 30 16 51 40 51 13 -1 12 -3 -2 -14z
m3152 -91 c0 -63 -4 -105 -10 -105 -5 0 -10 4 -10 9 0 5 -12 5 -28 -1 -51 -19
-106 6 -117 54 -14 55 68 99 126 68 17 -10 19 -7 19 35 0 25 5 45 10 45 6 0
10 -42 10 -105z m-7510 66 c0 -10 10 -22 23 -26 l22 -8 -23 -4 c-21 -4 -23 -9
-20 -56 3 -45 6 -52 26 -55 26 -4 20 -22 -8 -22 -26 0 -40 30 -40 84 0 37 -4
46 -17 47 -17 1 -17 2 0 6 11 3 17 14 17 34 0 18 4 28 10 24 6 -3 10 -14 10
-24z m2260 0 c0 -10 10 -22 23 -26 l22 -8 -23 -4 c-21 -4 -23 -9 -20 -56 3
-45 6 -52 26 -55 26 -4 20 -22 -8 -22 -26 0 -40 30 -40 84 0 37 -4 46 -17 47
-17 1 -17 2 0 6 11 3 17 14 17 34 0 18 4 28 10 24 6 -3 10 -14 10 -24z m2180
0 c0 -10 10 -22 23 -26 l22 -8 -23 -4 c-21 -4 -23 -9 -20 -56 3 -45 6 -52 26
-55 26 -4 20 -22 -8 -22 -26 0 -40 30 -40 84 0 37 -4 46 -17 47 -17 1 -17 2 0
6 11 3 17 14 17 34 0 18 4 28 10 24 6 -3 10 -14 10 -24z m1900 0 c0 -10 10
-22 23 -26 l22 -8 -23 -4 c-21 -4 -23 -9 -20 -56 3 -45 6 -52 26 -55 26 -4 20
-22 -8 -22 -26 0 -40 30 -40 84 0 37 -4 46 -17 47 -17 1 -17 2 0 6 11 3 17 14
17 34 0 18 4 28 10 24 6 -3 10 -14 10 -24z m-6030 9 c0 -5 -4 -10 -10 -10 -5
0 -10 5 -10 10 0 6 5 10 10 10 6 0 10 -4 10 -10z m1030 0 c0 -5 -4 -10 -10
-10 -5 0 -10 5 -10 10 0 6 5 10 10 10 6 0 10 -4 10 -10z m630 0 c0 -5 -4 -10
-10 -10 -5 0 -10 5 -10 10 0 6 5 10 10 10 6 0 10 -4 10 -10z m230 0 c0 -5 -4
-10 -10 -10 -5 0 -10 5 -10 10 0 6 5 10 10 10 6 0 10 -4 10 -10z m610 0 c0 -5
-4 -10 -10 -10 -5 0 -10 5 -10 10 0 6 5 10 10 10 6 0 10 -4 10 -10z m-4573
-43 c33 22 61 8 73 -35 14 -53 13 -102 -3 -102 -9 0 -14 16 -15 51 -1 57 -10
73 -38 67 -16 -3 -20 -14 -22 -61 -4 -73 -18 -74 -24 -2 -6 70 -18 84 -52 61
-22 -14 -26 -24 -26 -66 0 -28 -4 -50 -9 -50 -11 0 -18 59 -13 105 3 27 8 34
21 31 9 -3 23 -1 31 4 10 6 22 5 35 -4 17 -11 23 -11 42 1z m119 3 c7 -7 20
-7 40 0 86 30 135 -69 61 -124 -23 -17 -32 -18 -62 -9 l-35 11 0 -49 c0 -27
-4 -49 -9 -49 -6 0 -11 52 -13 115 -2 63 -1 115 3 115 3 0 10 -5 15 -10z m274
0 c17 0 50 -44 50 -65 0 -28 -38 -63 -78 -71 -26 -5 -36 -1 -62 24 -35 36 -37
50 -10 85 20 25 52 38 78 31 8 -2 18 -4 22 -4z m381 0 c10 -6 19 -19 19 -29 0
-15 -10 -20 -53 -25 -74 -10 -85 -18 -57 -46 22 -22 59 -24 103 -5 9 4 17 3
17 -3 0 -5 -14 -15 -30 -22 -62 -26 -139 26 -124 84 11 45 79 70 125 46z m466
-3 c33 22 61 8 73 -35 14 -53 13 -102 -3 -102 -9 0 -14 16 -15 51 -1 57 -10
73 -38 67 -16 -3 -20 -14 -22 -61 -4 -73 -18 -74 -24 -2 -6 70 -18 84 -52 61
-22 -14 -26 -24 -26 -66 0 -28 -4 -50 -9 -50 -11 0 -18 59 -13 105 3 27 8 34
21 31 9 -3 23 -1 31 4 10 6 22 5 35 -4 17 -11 23 -11 42 1z m213 3 c17 0 50
-44 50 -65 0 -28 -38 -63 -78 -71 -26 -5 -36 -1 -62 24 -35 36 -37 50 -10 85
20 25 52 38 78 31 8 -2 18 -4 22 -4z m179 -4 c10 -12 5 -14 -35 -13 -30 1 -48
-3 -51 -10 -5 -13 2 -17 49 -27 34 -8 55 -41 38 -61 -14 -17 -63 -28 -90 -20
-34 11 -22 22 22 21 32 -1 43 3 46 15 2 12 -9 21 -40 30 -45 15 -59 39 -38 64
16 19 84 19 99 1z m224 -103 c25 -40 77 9 77 73 0 32 4 44 13 42 15 -6 22
-127 8 -141 -8 -8 -11 -6 -11 6 0 14 -4 15 -31 3 -60 -25 -89 3 -89 83 0 59
14 59 20 -1 3 -29 9 -59 13 -65z m217 42 c0 -43 -4 -75 -10 -75 -6 0 -10 32
-10 75 0 43 4 75 10 75 6 0 10 -32 10 -75z m40 61 c0 -12 4 -12 30 0 53 27 90
-13 90 -97 0 -21 -4 -39 -10 -39 -5 0 -10 19 -10 43 0 45 -22 87 -45 87 -23 0
-55 -50 -55 -86 0 -18 -4 -36 -10 -39 -6 -4 -10 22 -10 69 0 44 4 76 10 76 6
0 10 -6 10 -14z m160 0 c0 -12 4 -12 30 0 53 27 90 -13 90 -97 0 -21 -4 -39
-10 -39 -5 0 -10 19 -10 43 0 45 -22 87 -45 87 -23 0 -55 -50 -55 -86 0 -18
-4 -36 -10 -39 -6 -4 -10 22 -10 69 0 44 4 76 10 76 6 0 10 -6 10 -14z m250 4
c17 0 50 -44 50 -65 0 -28 -38 -63 -78 -71 -26 -5 -36 -1 -62 24 -35 36 -37
50 -10 85 20 25 52 38 78 31 8 -2 18 -4 22 -4z m501 0 c10 0 19 -4 19 -10 0
-5 -18 -10 -41 -10 -56 0 -79 -14 -79 -50 0 -47 45 -61 113 -35 9 4 17 3 17
-4 0 -5 -18 -16 -40 -22 -34 -10 -46 -10 -74 4 -44 21 -54 51 -29 86 23 31 62
53 81 46 8 -3 22 -5 33 -5z m79 -65 c0 -43 -4 -75 -10 -75 -6 0 -10 32 -10 75
0 43 4 75 10 75 6 0 10 -32 10 -75z m130 65 c17 0 50 -44 50 -65 0 -28 -38
-63 -78 -71 -26 -5 -36 -1 -62 24 -35 36 -37 50 -10 85 20 25 52 38 78 31 8
-2 18 -4 22 -4z m90 -4 c0 -12 4 -12 30 0 53 27 90 -13 90 -97 0 -21 -4 -39
-10 -39 -5 0 -10 19 -10 43 0 45 -22 87 -45 87 -23 0 -55 -50 -55 -86 0 -18
-4 -36 -10 -39 -6 -4 -10 22 -10 69 0 44 4 76 10 76 6 0 10 -6 10 -14z m410
-61 c0 -43 -4 -75 -10 -75 -6 0 -10 32 -10 75 0 43 4 75 10 75 6 0 10 -32 10
-75z m180 -16 c0 -50 -5 -99 -10 -109 -6 -11 -26 -22 -46 -26 -39 -7 -89 10
-78 27 4 8 9 8 17 0 16 -16 63 -13 81 5 9 8 16 26 16 39 0 21 -2 22 -28 13
-38 -15 -78 -3 -99 28 -15 24 -15 29 -2 53 21 38 65 57 101 43 22 -8 28 -7 28
4 0 8 5 14 10 14 6 0 10 -37 10 -91z m50 16 c0 -43 -4 -75 -10 -75 -6 0 -10
32 -10 75 0 43 4 75 10 75 6 0 10 -32 10 -75z m610 0 c0 -43 -4 -75 -10 -75
-6 0 -10 32 -10 75 0 43 4 75 10 75 6 0 10 -32 10 -75z m129 61 c10 -12 5 -14
-35 -13 -30 1 -48 -3 -51 -10 -5 -13 2 -17 49 -27 34 -8 55 -41 38 -61 -14
-17 -63 -28 -90 -20 -34 11 -22 22 22 21 32 -1 43 3 46 15 2 12 -9 21 -40 30
-45 15 -59 39 -38 64 16 19 84 19 99 1z m152 4 c10 -6 19 -19 19 -29 0 -15
-10 -20 -53 -25 -74 -10 -85 -18 -57 -46 22 -22 59 -24 103 -5 9 4 17 3 17 -3
0 -5 -14 -15 -30 -22 -62 -26 -139 26 -124 84 11 45 79 70 125 46z m69 -4 c0
-12 4 -12 30 0 53 27 90 -13 90 -97 0 -21 -4 -39 -10 -39 -5 0 -10 19 -10 43
0 45 -22 87 -45 87 -23 0 -55 -50 -55 -86 0 -18 -4 -36 -10 -39 -6 -4 -10 22
-10 69 0 44 4 76 10 76 6 0 10 -6 10 -14z m250 4 c17 0 50 -44 50 -65 0 -28
-38 -63 -78 -71 -26 -5 -36 -1 -62 24 -35 36 -37 50 -10 85 20 25 52 38 78 31
8 -2 18 -4 22 -4z m441 0 c10 -6 19 -19 19 -29 0 -15 -10 -20 -53 -25 -74 -10
-85 -18 -57 -46 22 -22 59 -24 103 -5 9 4 17 3 17 -3 0 -5 -14 -15 -30 -22
-62 -26 -139 26 -124 84 11 45 79 70 125 46z m228 -4 c10 -12 5 -14 -35 -13
-30 1 -48 -3 -51 -10 -5 -13 2 -17 49 -27 34 -8 55 -41 38 -61 -14 -17 -63
-28 -90 -20 -34 11 -22 22 22 21 32 -1 43 3 46 15 2 12 -9 21 -40 30 -45 15
-59 39 -38 64 16 19 84 19 99 1z m141 4 c17 0 50 -44 50 -65 0 -28 -38 -63
-78 -71 -26 -5 -36 -1 -62 24 -35 36 -37 50 -10 85 20 25 52 38 78 31 8 -2 18
-4 22 -4z m921 0 c10 -6 19 -19 19 -29 0 -15 -10 -20 -53 -25 -74 -10 -85 -18
-57 -46 22 -22 59 -24 103 -5 9 4 17 3 17 -3 0 -5 -14 -15 -30 -22 -62 -26
-139 26 -124 84 11 45 79 70 125 46z m223 -88 c-61 -113 -77 -137 -82 -124 -2
6 4 25 13 42 16 31 15 34 -11 96 -15 35 -24 68 -19 72 4 4 9 3 12 -3 2 -5 14
-32 26 -60 l23 -50 35 62 c18 34 37 59 42 56 4 -2 -13 -44 -39 -91z m235 84
c10 -12 5 -14 -35 -13 -30 1 -48 -3 -51 -10 -5 -13 2 -17 49 -27 34 -8 55 -41
38 -61 -14 -17 -63 -28 -90 -20 -34 11 -22 22 22 21 32 -1 43 3 46 15 2 12 -9
21 -40 30 -45 15 -59 39 -38 64 16 19 84 19 99 1z m141 4 c17 0 50 -44 50 -65
0 -28 -38 -63 -78 -71 -26 -5 -36 -1 -62 24 -35 36 -37 50 -10 85 20 25 52 38
78 31 8 -2 18 -4 22 -4z m86 0 c7 -7 20 -7 42 1 24 8 38 7 59 -3 24 -12 28
-19 28 -57 0 -36 -5 -47 -27 -64 -24 -18 -32 -19 -63 -10 l-35 11 0 -49 c0
-27 -4 -49 -9 -49 -6 0 -11 52 -13 115 -2 63 -1 115 3 115 3 0 10 -5 15 -10z
m264 0 c17 0 50 -44 50 -65 0 -28 -38 -63 -78 -71 -26 -5 -36 -1 -62 24 -35
36 -37 50 -10 85 20 25 52 38 78 31 8 -2 18 -4 22 -4z m431 0 c10 -6 19 -19
19 -29 0 -15 -10 -20 -53 -25 -74 -10 -85 -18 -57 -46 22 -22 59 -24 103 -5 9
4 17 3 17 -3 0 -5 -14 -15 -30 -22 -62 -26 -139 26 -124 84 11 45 79 70 125
46z m240 0 c10 -6 19 -19 19 -29 0 -15 -10 -20 -53 -25 -74 -10 -85 -18 -57
-46 22 -22 59 -24 103 -5 9 4 17 3 17 -3 0 -5 -14 -15 -30 -22 -62 -26 -139
26 -124 84 11 45 79 70 125 46z m79 -4 c0 -12 4 -12 30 0 53 27 90 -13 90 -97
0 -21 -4 -39 -10 -39 -5 0 -10 19 -10 43 0 45 -22 87 -45 87 -23 0 -55 -50
-55 -86 0 -18 -4 -36 -10 -39 -6 -4 -10 22 -10 69 0 44 4 76 10 76 6 0 10 -6
10 -14z m451 4 c10 -6 19 -19 19 -29 0 -15 -10 -20 -53 -25 -74 -10 -85 -18
-57 -46 22 -22 59 -24 103 -5 9 4 17 3 17 -3 0 -5 -14 -15 -30 -22 -62 -26
-139 26 -124 84 11 45 79 70 125 46z m360 0 c10 -6 19 -19 19 -29 0 -15 -10
-20 -53 -25 -74 -10 -85 -18 -57 -46 22 -22 59 -24 103 -5 9 4 17 3 17 -3 0
-5 -14 -15 -30 -22 -62 -26 -139 26 -124 84 11 45 79 70 125 46z m168 -4 c10
-12 5 -14 -35 -13 -30 1 -48 -3 -51 -10 -5 -13 2 -17 49 -27 34 -8 55 -41 38
-61 -14 -17 -63 -28 -90 -20 -34 11 -22 22 22 21 32 -1 43 3 46 15 2 12 -9 21
-40 30 -45 15 -59 39 -38 64 16 19 84 19 99 1z m-8746 -8 c4 -10 7 -10 18 0
15 14 79 16 79 2 0 -5 -13 -10 -30 -10 -34 0 -55 -26 -65 -82 -11 -61 -25 -43
-25 32 0 63 11 90 23 58z m237 -3 c15 -18 25 -88 16 -112 -5 -13 -9 -14 -15
-5 -6 10 -17 10 -54 0 -40 -10 -49 -10 -62 3 -35 34 16 89 81 89 16 0 23 4 18
11 -4 7 -24 9 -50 6 -24 -2 -44 -1 -44 3 0 22 92 27 110 5z m1556 -42 l26 -58
30 60 c17 33 33 55 35 48 5 -13 -54 -133 -65 -133 -10 0 -62 105 -62 125 0 27
10 15 36 -42z m234 42 c15 -18 25 -88 16 -112 -5 -13 -9 -14 -15 -5 -6 10 -17
10 -54 0 -40 -10 -49 -10 -62 3 -35 34 16 89 81 89 16 0 23 4 18 11 -4 7 -24
9 -50 6 -24 -2 -44 -1 -44 3 0 22 92 27 110 5z m1350 0 c15 -18 25 -88 16
-112 -5 -13 -9 -14 -15 -5 -6 10 -17 10 -54 0 -40 -10 -49 -10 -62 3 -35 34
16 89 81 89 16 0 23 4 18 11 -4 7 -24 9 -50 6 -24 -2 -44 -1 -44 3 0 22 92 27
110 5z m88 -3 c2 -7 -3 -12 -12 -12 -9 0 -16 7 -16 16 0 17 22 14 28 -4z
m1997 -29 l28 -46 18 24 19 24 19 -24 c22 -29 32 -24 56 29 15 34 35 53 35 35
0 -14 -61 -125 -68 -125 -5 0 -15 11 -22 25 -7 14 -16 25 -20 25 -4 0 -12 -11
-18 -25 -6 -14 -15 -25 -20 -25 -8 0 -62 104 -62 120 0 18 8 10 35 -37z m315
32 c15 -18 25 -88 16 -112 -5 -13 -9 -14 -15 -5 -6 10 -17 10 -54 0 -40 -10
-49 -10 -62 3 -35 34 16 89 81 89 16 0 23 4 18 11 -4 7 -24 9 -50 6 -24 -2
-44 -1 -44 3 0 22 92 27 110 5z m53 3 c4 -10 7 -10 18 0 15 14 79 16 79 2 0
-5 -13 -10 -30 -10 -34 0 -55 -26 -65 -82 -11 -61 -25 -43 -25 32 0 63 11 90
23 58z m1270 0 c4 -10 7 -10 18 0 15 14 79 16 79 2 0 -5 -13 -10 -30 -10 -34
0 -55 -26 -65 -82 -11 -61 -25 -43 -25 32 0 63 11 90 23 58z m880 0 c4 -10 7
-10 18 0 15 14 79 16 79 2 0 -5 -13 -10 -30 -10 -34 0 -55 -26 -65 -82 -11
-61 -25 -43 -25 32 0 63 11 90 23 58z m-4513 -117 c0 -11 -4 -23 -10 -26 -5
-3 -10 -2 -10 4 0 5 -3 16 -6 25 -4 11 -1 16 10 16 9 0 16 -8 16 -19z m5330 0
c0 -11 -4 -23 -10 -26 -5 -3 -10 -2 -10 4 0 5 -3 16 -6 25 -4 11 -1 16 10 16
9 0 16 -8 16 -19z m-6840 -78 c0 -22 -2 -25 -10 -13 -13 20 -13 40 0 40 6 0
10 -12 10 -27z m30 2 c0 -14 -4 -25 -10 -25 -5 0 -10 11 -10 25 0 14 5 25 10
25 6 0 10 -11 10 -25z m3840 -2 c0 -22 -2 -25 -10 -13 -13 20 -13 40 0 40 6 0
10 -12 10 -27z m30 2 c0 -14 -4 -25 -10 -25 -5 0 -10 11 -10 25 0 14 5 25 10
25 6 0 10 -11 10 -25z m-3740 -44 c0 -10 10 -22 23 -26 l22 -8 -23 -4 c-21 -4
-23 -9 -20 -56 3 -45 6 -52 26 -55 26 -4 20 -22 -8 -22 -26 0 -40 30 -40 84 0
37 -4 46 -17 47 -17 1 -17 2 0 6 11 3 17 14 17 34 0 18 4 28 10 24 6 -3 10
-14 10 -24z m700 0 c0 -10 10 -22 23 -26 l22 -8 -23 -4 c-21 -4 -23 -9 -20
-56 3 -45 6 -52 26 -55 26 -4 20 -22 -8 -22 -26 0 -40 30 -40 84 0 37 -4 46
-17 47 -17 1 -17 2 0 6 11 3 17 14 17 34 0 18 4 28 10 24 6 -3 10 -14 10 -24z
m1340 0 c0 -10 10 -22 23 -26 l22 -8 -23 -4 c-21 -4 -23 -9 -20 -56 3 -45 6
-52 26 -55 26 -4 20 -22 -8 -22 -26 0 -40 30 -40 84 0 37 -4 46 -17 47 -17 1
-17 2 0 6 11 3 17 14 17 34 0 18 4 28 10 24 6 -3 10 -14 10 -24z m-1410 9 c0
-5 -4 -10 -10 -10 -5 0 -10 5 -10 10 0 6 5 10 10 10 6 0 10 -4 10 -10z m2710
0 c0 -5 -4 -10 -10 -10 -5 0 -10 5 -10 10 0 6 5 10 10 10 6 0 10 -4 10 -10z
m-3247 -147 c25 -40 77 9 77 73 0 32 4 44 13 42 15 -6 22 -127 8 -141 -8 -8
-11 -6 -11 6 0 14 -4 15 -31 3 -60 -25 -89 3 -89 83 0 59 14 59 20 -1 3 -29 9
-59 13 -65z m308 107 c10 -6 19 -19 19 -29 0 -15 -10 -20 -53 -25 -74 -10 -85
-18 -57 -46 22 -22 59 -24 103 -5 9 4 17 3 17 -3 0 -5 -14 -15 -30 -22 -62
-26 -139 26 -124 84 11 45 79 70 125 46z m229 -65 c0 -43 -4 -75 -10 -75 -6 0
-10 32 -10 75 0 43 4 75 10 75 6 0 10 -32 10 -75z m240 65 c17 0 50 -44 50
-65 0 -28 -38 -63 -78 -71 -26 -5 -36 -1 -62 24 -35 36 -37 50 -10 85 20 25
52 38 78 31 8 -2 18 -4 22 -4z m261 0 c10 -6 19 -19 19 -29 0 -15 -10 -20 -53
-25 -74 -10 -85 -18 -57 -46 22 -22 59 -24 103 -5 9 4 17 3 17 -3 0 -5 -14
-15 -30 -22 -62 -26 -139 26 -124 84 11 45 79 70 125 46z m158 -4 c10 -12 5
-14 -35 -13 -30 1 -48 -3 -51 -10 -5 -13 2 -17 49 -27 34 -8 55 -41 38 -61
-14 -17 -63 -28 -90 -20 -34 11 -22 22 22 21 32 -1 43 3 46 15 2 12 -9 21 -40
30 -45 15 -59 39 -38 64 16 19 84 19 99 1z m111 0 c0 -12 4 -12 30 0 53 27 90
-13 90 -97 0 -21 -4 -39 -10 -39 -5 0 -10 19 -10 43 0 45 -22 87 -45 87 -23 0
-55 -50 -55 -86 0 -18 -4 -36 -10 -39 -6 -4 -10 22 -10 69 0 44 4 76 10 76 6
0 10 -6 10 -14z m163 -103 c25 -40 77 9 77 73 0 32 4 44 13 42 15 -6 22 -127
8 -141 -8 -8 -11 -6 -11 6 0 14 -4 15 -31 3 -60 -25 -89 3 -89 83 0 59 14 59
20 -1 3 -29 9 -59 13 -65z m248 107 c10 -6 19 -19 19 -29 0 -15 -10 -20 -53
-25 -74 -10 -85 -18 -57 -46 22 -22 59 -24 103 -5 9 4 17 3 17 -3 0 -5 -14
-15 -30 -22 -62 -26 -139 26 -124 84 11 45 79 70 125 46z m166 -6 c2 -7 -12
-10 -38 -10 -25 1 -44 -4 -46 -11 -5 -13 2 -17 49 -27 34 -8 55 -41 38 -61
-14 -17 -63 -28 -90 -20 -34 11 -22 22 22 21 32 -1 43 3 46 15 2 12 -9 21 -40
30 -45 15 -59 39 -37 65 14 17 90 16 96 -2z m614 6 c10 0 19 -4 19 -10 0 -5
-18 -10 -41 -10 -56 0 -79 -14 -79 -50 0 -47 45 -61 113 -35 9 4 17 3 17 -4 0
-5 -18 -16 -40 -22 -34 -10 -46 -10 -74 4 -44 21 -54 51 -29 86 23 31 62 53
81 46 8 -3 22 -5 33 -5z m169 0 c17 0 50 -44 50 -65 0 -28 -38 -63 -78 -71
-26 -5 -36 -1 -62 24 -35 36 -37 50 -10 85 20 25 52 38 78 31 8 -2 18 -4 22
-4z m90 -4 c0 -12 5 -12 30 1 28 13 33 13 55 -1 14 -9 25 -26 25 -39 0 -12 3
-39 6 -59 5 -25 3 -38 -5 -38 -6 0 -11 18 -11 43 0 45 -22 87 -45 87 -23 0
-55 -50 -55 -86 0 -18 -4 -36 -10 -39 -6 -4 -10 22 -10 69 0 44 4 76 10 76 6
0 10 -6 10 -14z m251 4 c10 -6 19 -19 19 -29 0 -15 -10 -20 -53 -25 -74 -10
-85 -18 -57 -46 22 -22 59 -24 103 -5 9 4 17 3 17 -3 0 -5 -14 -15 -30 -22
-62 -26 -139 26 -124 84 11 45 79 70 125 46z m239 -65 c0 -43 -4 -75 -10 -75
-6 0 -10 32 -10 75 0 43 4 75 10 75 6 0 10 -32 10 -75z m130 65 c17 0 50 -44
50 -65 0 -28 -38 -63 -78 -71 -26 -5 -36 -1 -62 24 -35 36 -37 50 -10 85 20
25 52 38 78 31 8 -2 18 -4 22 -4z m90 -4 c0 -12 4 -12 30 0 53 27 90 -13 90
-97 0 -21 -4 -39 -10 -39 -5 0 -10 19 -10 43 0 45 -22 87 -45 87 -23 0 -55
-50 -55 -86 0 -18 -4 -36 -10 -39 -6 -4 -10 22 -10 69 0 44 4 76 10 76 6 0 10
-6 10 -14z m-3008 -19 c36 35 49 21 15 -15 l-27 -28 27 -27 c15 -14 24 -30 20
-34 -4 -4 -20 5 -34 20 l-27 27 -28 -27 c-36 -35 -50 -21 -15 15 l27 28 -25
24 c-36 34 -31 46 7 16 l33 -25 27 26z m1571 11 c4 -10 7 -10 18 0 15 14 79
16 79 2 0 -5 -13 -10 -30 -10 -34 0 -55 -26 -65 -82 -11 -61 -25 -43 -25 32 0
63 11 90 23 58z m237 -3 c15 -18 25 -88 16 -112 -5 -13 -9 -14 -15 -5 -6 10
-17 10 -54 0 -40 -10 -49 -10 -62 3 -35 34 16 89 81 89 16 0 23 4 18 11 -4 7
-24 9 -50 6 -24 -2 -44 -1 -44 3 0 22 92 27 110 5z m892 -8 c36 35 50 21 15
-14 l-27 -27 32 -33 c22 -22 27 -33 17 -33 -9 0 -26 11 -39 25 l-24 25 -28
-27 c-36 -35 -50 -21 -15 15 l27 28 -25 24 c-36 34 -31 46 7 16 l33 -25 27 26z"/>
<path d="M4081 7364 c0 -11 3 -14 6 -6 3 7 2 16 -1 19 -3 4 -6 -2 -5 -13z"/>
<path d="M6430 7266 c0 -2 8 -10 18 -17 15 -13 16 -12 3 4 -13 16 -21 21 -21
13z"/>
<path d="M6492 7224 c10 -10 20 -16 22 -13 3 3 -5 11 -17 18 -21 13 -21 12 -5
-5z"/>
<path d="M6550 7180 c0 -5 5 -10 11 -10 5 0 7 5 4 10 -3 6 -8 10 -11 10 -2 0
-4 -4 -4 -10z"/>
<path d="M6565 7150 c-4 -6 1 -7 11 -3 12 4 15 3 10 -5 -4 -7 -3 -12 3 -12 17
0 21 18 5 24 -21 8 -22 8 -29 -4z"/>
<path d="M6610 7126 c0 -2 7 -9 15 -16 9 -7 15 -8 15 -2 0 5 -7 12 -15 16 -8
3 -15 4 -15 2z"/>
<path d="M6670 7085 c13 -14 26 -25 28 -25 3 0 -5 11 -18 25 -13 14 -26 25
-28 25 -3 0 5 -11 18 -25z"/>
<path d="M6640 7080 c0 -5 5 -10 11 -10 5 0 7 5 4 10 -3 6 -8 10 -11 10 -2 0
-4 -4 -4 -10z"/>
<path d="M6710 7054 c0 -6 11 -21 25 -34 13 -12 23 -28 22 -34 -1 -6 4 -10 12
-8 13 3 31 -14 31 -30 0 -5 -7 -8 -16 -8 -9 0 -14 -6 -11 -12 2 -7 13 -13 25
-13 11 0 24 -4 29 -9 4 -5 3 -7 -2 -3 -6 3 -17 1 -25 -5 -11 -7 -6 -8 18 -4
18 3 32 1 32 -4 0 -6 -4 -10 -10 -10 -5 0 -10 -7 -10 -15 0 -8 -4 -15 -10 -15
-5 0 -10 6 -10 14 0 9 -8 12 -26 8 -19 -3 -25 -1 -20 7 7 10 -6 16 -28 12 -4
-1 -13 5 -20 12 -6 8 -29 19 -51 25 -57 15 -116 38 -111 43 2 2 -10 5 -27 6
-27 2 -24 -1 23 -21 145 -60 430 -218 486 -268 28 -25 40 -8 20 29 -21 39
-193 206 -204 199 -6 -3 -9 2 -8 12 0 10 -6 16 -16 16 -10 -1 -15 2 -12 7 3 5
-12 23 -32 41 -21 18 -46 42 -56 52 -10 11 -18 15 -18 10z m200 -214 c6 9 10
11 10 3 0 -7 -8 -17 -18 -22 -14 -8 -18 -5 -19 12 -2 17 0 19 7 7 9 -13 11
-13 20 0z m42 -52 c-9 -9 -15 -9 -24 0 -9 9 -7 12 12 12 19 0 21 -3 12 -12z"/>
<path d="M6430 7006 c0 -2 15 -9 33 -15 29 -10 30 -9 13 4 -18 14 -46 20 -46
11z"/>
<path d="M6700 7001 c0 -6 4 -12 9 -15 13 -8 42 4 35 15 -7 12 -44 12 -44 0z"/>
<path d="M6705 6940 c-3 -5 -1 -10 4 -10 6 0 11 5 11 10 0 6 -2 10 -4 10 -3 0
-8 -4 -11 -10z"/>
<path d="M5978 6833 c7 -3 16 -2 19 1 4 3 -2 6 -13 5 -11 0 -14 -3 -6 -6z"/>
<path d="M7210 6435 c-33 -19 -21 -19 21 0 19 8 27 14 19 14 -8 0 -26 -6 -40
-14z"/>
<path d="M4500 6365 c-14 -8 -20 -14 -15 -14 6 0 21 6 35 14 14 8 21 14 15 14
-5 0 -21 -6 -35 -14z"/>
<path d="M4435 6320 c-3 -6 1 -7 9 -4 18 7 21 14 7 14 -6 0 -13 -4 -16 -10z"/>
<path d="M4386 6283 c-6 -14 -5 -15 5 -6 7 7 10 15 7 18 -3 3 -9 -2 -12 -12z"/>
<path d="M4430 6279 c0 -5 5 -7 10 -4 6 3 10 8 10 11 0 2 -4 4 -10 4 -5 0 -10
-5 -10 -11z"/>
<path d="M7021 6274 c0 -11 3 -14 6 -6 3 7 2 16 -1 19 -3 4 -6 -2 -5 -13z"/>
<path d="M4385 6250 c4 -6 11 -8 16 -5 14 9 11 15 -7 15 -8 0 -12 -5 -9 -10z"/>
<path d="M4366 6189 c-6 -35 -2 -48 19 -80 25 -38 50 -54 39 -24 -4 8 -10 15
-14 15 -12 0 -43 72 -34 79 11 7 13 51 4 51 -4 0 -10 -19 -14 -41z"/>
<path d="M4334 6175 c-7 -27 14 -79 49 -127 24 -33 37 -36 30 -8 -3 12 -8 18
-11 15 -16 -15 -63 93 -55 125 3 11 3 20 -1 20 -3 0 -8 -11 -12 -25z"/>
<path d="M7050 6145 c0 -8 5 -15 10 -15 6 0 10 7 10 15 0 8 -4 15 -10 15 -5 0
-10 -7 -10 -15z"/>
<path d="M4435 6040 c3 -5 11 -10 16 -10 6 0 7 5 4 10 -3 6 -11 10 -16 10 -6
0 -7 -4 -4 -10z"/>
<path d="M7020 6031 c0 -6 4 -13 10 -16 6 -3 7 1 4 9 -7 18 -14 21 -14 7z"/>
<path d="M7045 5990 c-3 -5 -2 -10 4 -10 5 0 13 5 16 10 3 6 2 10 -4 10 -5 0
-13 -4 -16 -10z"/>
<path d="M7060 5960 c0 -5 5 -10 10 -10 6 0 10 5 10 10 0 6 -4 10 -10 10 -5 0
-10 -4 -10 -10z"/>
<path d="M4555 5950 c3 -5 8 -10 11 -10 2 0 4 5 4 10 0 6 -5 10 -11 10 -5 0
-7 -4 -4 -10z"/>
<path d="M7040 5819 c0 -5 5 -7 10 -4 6 3 10 8 10 11 0 2 -4 4 -10 4 -5 0 -10
-5 -10 -11z"/>
<path d="M7032 5665 c0 -16 2 -22 5 -12 2 9 2 23 0 30 -3 6 -5 -1 -5 -18z"/>
<path d="M7005 5620 c-3 -6 1 -7 9 -4 18 7 21 14 7 14 -6 0 -13 -4 -16 -10z"/>
<path d="M6990 5591 c0 -10 19 -25 25 -20 1 2 -3 10 -11 17 -8 7 -14 8 -14 3z"/>
<path d="M6985 5550 c3 -5 8 -10 11 -10 2 0 4 5 4 10 0 6 -5 10 -11 10 -5 0
-7 -4 -4 -10z"/>
<path d="M6945 5540 c-3 -5 -1 -10 4 -10 6 0 11 5 11 10 0 6 -2 10 -4 10 -3 0
-8 -4 -11 -10z"/>
<path d="M6956 5494 c-9 -24 -2 -26 12 -4 7 11 8 20 3 20 -5 0 -12 -7 -15 -16z"/>
<path d="M6838 5385 c-6 -14 -15 -25 -20 -25 -4 0 -8 -4 -8 -10 0 -21 18 -9
30 19 6 17 19 32 28 34 15 4 15 5 -1 6 -10 0 -22 -10 -29 -24z"/>
<path d="M6765 5380 c-3 -6 1 -7 9 -4 18 7 21 14 7 14 -6 0 -13 -4 -16 -10z"/>
<path d="M6863 5373 c-3 -10 -8 -21 -10 -25 -2 -5 1 -8 6 -8 6 0 11 8 11 18 0
14 2 15 10 2 8 -12 10 -11 10 8 0 26 -18 30 -27 5z"/>
<path d="M2605 5980 c-3 -5 -1 -10 4 -10 6 0 11 5 11 10 0 6 -2 10 -4 10 -3 0
-8 -4 -11 -10z"/>
<path d="M3798 5083 c7 -3 16 -2 19 1 4 3 -2 6 -13 5 -11 0 -14 -3 -6 -6z"/>
<path d="M3600 5076 c0 -2 14 -6 30 -8 17 -3 30 -1 30 4 0 4 -13 8 -30 8 -16
0 -30 -2 -30 -4z"/>
<path d="M3429 4982 c9 -7 10 -12 2 -16 -6 -4 -10 -19 -10 -34 2 -24 2 -24 6
-4 2 12 8 20 12 18 4 -3 7 5 6 16 -1 12 -8 24 -16 26 -12 3 -12 2 0 -6z"/>
<path d="M3468 4963 c6 -2 18 -2 25 0 6 3 1 5 -13 5 -14 0 -19 -2 -12 -5z"/>
<path d="M4840 4882 c0 -14 48 -21 79 -12 24 8 23 8 -9 8 -19 -1 -43 2 -52 6
-11 5 -18 4 -18 -2z"/>
<path d="M3350 4839 c0 -11 4 -18 10 -14 5 3 7 12 3 20 -7 21 -13 19 -13 -6z"/>
<path d="M5051 4852 c-1 -8 -6 -10 -13 -6 -10 5 -10 4 -1 -6 15 -16 28 -8 20
12 -4 11 -6 11 -6 0z"/>
<path d="M5036 4807 c3 -10 9 -15 12 -12 3 3 0 11 -7 18 -10 9 -11 8 -5 -6z"/>
<path d="M5150 4780 c0 -5 5 -10 10 -10 6 0 10 5 10 10 0 6 -4 10 -10 10 -5 0
-10 -4 -10 -10z"/>
<path d="M5048 4733 c7 -3 16 -2 19 1 4 3 -2 6 -13 5 -11 0 -14 -3 -6 -6z"/>
<path d="M5206 4693 c-4 -12 -15 -24 -24 -26 -13 -4 -13 -5 -2 -6 24 -1 42 15
38 35 -4 17 -5 17 -12 -3z"/>
<path d="M5328 4703 c7 -3 16 -2 19 1 4 3 -2 6 -13 5 -11 0 -14 -3 -6 -6z"/>
<path d="M3356 4683 c-6 -14 -5 -15 5 -6 7 7 10 15 7 18 -3 3 -9 -2 -12 -12z"/>
<path d="M5110 4655 c7 -9 15 -13 17 -11 7 7 -7 26 -19 26 -6 0 -6 -6 2 -15z"/>
<path d="M5220 4660 c-9 -6 -10 -10 -3 -10 6 0 15 5 18 10 8 12 4 12 -15 0z"/>
<path d="M5187 4625 c-4 -8 -2 -17 3 -20 6 -4 10 3 10 14 0 25 -6 27 -13 6z"/>
<path d="M3340 4605 c0 -14 4 -25 9 -25 4 0 6 11 3 25 -2 14 -6 25 -8 25 -2 0
-4 -11 -4 -25z"/>
<path d="M5145 4610 c3 -5 10 -10 16 -10 5 0 9 5 9 10 0 6 -7 10 -16 10 -8 0
-12 -4 -9 -10z"/>
<path d="M5070 4600 c-12 -7 -12 -11 -2 -20 6 -5 10 -7 7 -4 -3 4 3 13 13 20
19 15 5 19 -18 4z"/>
<path d="M3316 4583 c-6 -14 -5 -15 5 -6 7 7 10 15 7 18 -3 3 -9 -2 -12 -12z"/>
<path d="M5120 4590 c0 -5 5 -10 11 -10 5 0 7 5 4 10 -3 6 -8 10 -11 10 -2 0
-4 -4 -4 -10z"/>
<path d="M3346 4557 c3 -10 9 -15 12 -12 3 3 0 11 -7 18 -10 9 -11 8 -5 -6z"/>
<path d="M5025 4557 c34 -23 53 -27 59 -11 4 11 0 13 -19 8 -15 -4 -25 -2 -25
5 0 6 -8 11 -17 11 -15 0 -15 -2 2 -13z"/>
<path d="M3310 4550 c0 -5 5 -10 10 -10 6 0 10 5 10 10 0 6 -4 10 -10 10 -5 0
-10 -4 -10 -10z"/>
<path d="M4956 4538 c3 -4 11 -5 19 -1 21 7 19 12 -4 10 -11 0 -18 -5 -15 -9z"/>
<path d="M5020 4525 c7 -9 15 -13 17 -11 7 7 -7 26 -19 26 -6 0 -6 -6 2 -15z"/>
<path d="M3350 4511 c0 -6 4 -13 10 -16 6 -3 7 1 4 9 -7 18 -14 21 -14 7z"/>
<path d="M3330 4475 c-6 -8 -9 -23 -5 -35 10 -31 20 -24 20 15 0 40 1 39 -15
20z"/>
<path d="M3360 4401 c0 -5 5 -13 10 -16 6 -3 10 -2 10 4 0 5 -4 13 -10 16 -5
3 -10 2 -10 -4z"/>
<path d="M4801 4354 c0 -11 3 -14 6 -6 3 7 2 16 -1 19 -3 4 -6 -2 -5 -13z"/>
<path d="M4775 4350 c-3 -5 -1 -10 4 -10 6 0 11 5 11 10 0 6 -2 10 -4 10 -3 0
-8 -4 -11 -10z"/>
<path d="M4667 4214 c6 -15 23 -19 23 -5 0 5 -7 11 -14 14 -10 4 -13 1 -9 -9z"/>
<path d="M3550 4140 c0 -5 5 -10 10 -10 6 0 10 5 10 10 0 6 -4 10 -10 10 -5 0
-10 -4 -10 -10z"/>
<path d="M4460 4090 c-8 -5 -12 -12 -9 -15 4 -3 12 1 19 10 14 17 11 19 -10 5z"/>
<path d="M4428 4040 c-15 -5 -29 -5 -32 -2 -3 3 -6 2 -6 -2 0 -4 8 -15 17 -24
16 -16 16 -16 10 1 -6 16 -2 18 27 16 19 -2 39 1 43 6 4 6 4 7 -1 3 -5 -4 -14
-4 -20 1 -6 4 -23 5 -38 1z"/>
<path d="M3860 4000 c0 -5 5 -10 10 -10 6 0 10 5 10 10 0 6 -4 10 -10 10 -5 0
-10 -4 -10 -10z"/>
<path d="M4358 4003 c7 -3 16 -2 19 1 4 3 -2 6 -13 5 -11 0 -14 -3 -6 -6z"/>
<path d="M4203 3973 c9 -2 23 -2 30 0 6 3 -1 5 -18 5 -16 0 -22 -2 -12 -5z"/>
<path d="M3970 3948 c0 -4 17 -8 37 -8 20 0 33 3 29 7 -10 10 -66 11 -66 1z"/>
<path d="M4065 3950 c-18 -8 -17 -9 7 -9 15 -1 30 4 33 9 7 12 -12 12 -40 0z"/>
<path d="M4144 3945 c-18 -13 -17 -14 16 -15 23 0 31 3 21 9 -11 7 -11 9 0 14
11 4 10 6 -2 6 -8 1 -24 -6 -35 -14z"/>
<path d="M4240 3948 c0 -4 12 -8 27 -8 14 0 23 3 19 7 -10 10 -46 11 -46 1z"/>
<path d="M4208 3943 c7 -3 16 -2 19 1 4 3 -2 6 -13 5 -11 0 -14 -3 -6 -6z"/>
<path d="M4580 3030 c0 -5 5 -10 10 -10 6 0 10 5 10 10 0 6 -4 10 -10 10 -5 0
-10 -4 -10 -10z"/>
<path d="M4610 2906 c0 -2 7 -7 16 -10 8 -3 12 -2 9 4 -6 10 -25 14 -25 6z"/>
<path d="M4715 2850 c3 -5 11 -10 16 -10 6 0 7 5 4 10 -3 6 -11 10 -16 10 -6
0 -7 -4 -4 -10z"/>
<path d="M4858 2843 c7 -3 16 -2 19 1 4 3 -2 6 -13 5 -11 0 -14 -3 -6 -6z"/>
<path d="M4810 625 c0 -67 4 -105 10 -105 25 0 71 32 85 60 19 37 19 70 -1 98
-15 22 -63 52 -84 52 -6 0 -10 -38 -10 -105z"/>
<path d="M897 602 c-23 -25 -21 -48 5 -66 26 -18 61 -20 89 -6 22 12 26 59 7
78 -19 19 -82 15 -101 -6z"/>
<path d="M3967 602 c-23 -25 -21 -48 5 -66 26 -18 61 -20 89 -6 22 12 26 59 7
78 -19 19 -82 15 -101 -6z"/>
<path d="M5747 602 c-23 -25 -21 -48 5 -66 26 -18 61 -20 89 -6 22 12 26 59 7
78 -19 19 -82 15 -101 -6z"/>
<path d="M9547 602 c-23 -25 -21 -48 5 -66 26 -18 61 -20 89 -6 22 12 26 59 7
78 -19 19 -82 15 -101 -6z"/>
<path d="M552 614 c-12 -8 -22 -26 -22 -39 0 -25 33 -55 61 -55 38 0 65 70 37
98 -17 17 -49 15 -76 -4z"/>
<path d="M732 614 c-24 -17 -30 -62 -10 -82 31 -31 108 0 108 43 0 25 -33 55
-60 55 -9 0 -26 -7 -38 -16z"/>
<path d="M1089 610 l-24 -21 45 7 c25 4 53 8 62 8 13 0 14 4 6 13 -16 20 -63
16 -89 -7z"/>
<path d="M1792 614 c-24 -17 -30 -62 -10 -82 31 -31 108 0 108 43 0 25 -33 55
-60 55 -9 0 -26 -7 -38 -16z"/>
<path d="M2862 614 c-24 -17 -30 -62 -10 -82 31 -31 108 0 108 43 0 25 -33 55
-60 55 -9 0 -26 -7 -38 -16z"/>
<path d="M3572 614 c-24 -17 -30 -62 -10 -82 31 -31 108 0 108 43 0 25 -33 55
-60 55 -9 0 -26 -7 -38 -16z"/>
<path d="M4202 604 c-57 -40 11 -105 82 -78 24 9 21 71 -3 84 -28 14 -53 13
-79 -6z"/>
<path d="M5169 610 l-24 -21 45 7 c25 4 53 8 62 8 13 0 14 4 6 13 -16 20 -63
16 -89 -7z"/>
<path d="M5512 614 c-24 -17 -30 -62 -10 -82 31 -31 108 0 108 43 0 25 -33 55
-60 55 -9 0 -26 -7 -38 -16z"/>
<path d="M5929 610 l-24 -21 45 7 c25 4 53 8 62 8 13 0 14 4 6 13 -16 20 -63
16 -89 -7z"/>
<path d="M6322 614 c-24 -17 -30 -62 -10 -82 31 -31 108 0 108 43 0 25 -33 55
-60 55 -9 0 -26 -7 -38 -16z"/>
<path d="M7219 610 l-24 -21 45 7 c25 4 53 8 62 8 13 0 14 4 6 13 -16 20 -63
16 -89 -7z"/>
<path d="M7842 614 c-24 -17 -30 -62 -10 -82 31 -31 108 0 108 43 0 25 -33 55
-60 55 -9 0 -26 -7 -38 -16z"/>
<path d="M8022 614 c-12 -8 -22 -26 -22 -39 0 -25 33 -55 61 -55 38 0 65 70
37 98 -17 17 -49 15 -76 -4z"/>
<path d="M8192 614 c-24 -17 -30 -62 -10 -82 31 -31 108 0 108 43 0 25 -33 55
-60 55 -9 0 -26 -7 -38 -16z"/>
<path d="M8599 610 l-24 -21 45 7 c25 4 53 8 62 8 13 0 14 4 6 13 -16 20 -63
16 -89 -7z"/>
<path d="M8839 610 l-24 -21 45 7 c25 4 53 8 62 8 13 0 14 4 6 13 -16 20 -63
16 -89 -7z"/>
<path d="M9369 610 l-24 -21 45 7 c25 4 53 8 62 8 13 0 14 4 6 13 -16 20 -63
16 -89 -7z"/>
<path d="M9729 610 l-24 -21 45 7 c25 4 53 8 62 8 13 0 14 4 6 13 -16 20 -63
16 -89 -7z"/>
<path d="M1385 560 c-25 -28 -8 -45 38 -36 38 7 63 29 52 46 -11 18 -71 11
-90 -10z"/>
<path d="M3175 560 c-25 -28 -8 -45 38 -36 38 7 63 29 52 46 -11 18 -71 11
-90 -10z"/>
<path d="M4525 560 c-25 -28 -8 -45 38 -36 38 7 63 29 52 46 -11 18 -71 11
-90 -10z"/>
<path d="M6925 560 c-25 -28 -8 -45 38 -36 38 7 63 29 52 46 -11 18 -71 11
-90 -10z"/>
<path d="M3669 330 l-24 -21 45 7 c25 4 53 8 62 8 13 0 14 4 6 13 -16 20 -63
16 -89 -7z"/>
<path d="M4162 334 c-24 -17 -30 -62 -10 -82 31 -31 108 0 108 43 0 25 -33 55
-60 55 -9 0 -26 -7 -38 -16z"/>
<path d="M4399 330 l-24 -21 45 7 c25 4 53 8 62 8 13 0 14 4 6 13 -16 20 -63
16 -89 -7z"/>
<path d="M5079 330 l-24 -21 45 7 c25 4 53 8 62 8 13 0 14 4 6 13 -16 20 -63
16 -89 -7z"/>
<path d="M6052 334 c-24 -17 -30 -62 -10 -82 31 -31 108 0 108 43 0 25 -33 55
-60 55 -9 0 -26 -7 -38 -16z"/>
<path d="M6369 330 l-24 -21 45 7 c25 4 53 8 62 8 13 0 14 4 6 13 -16 20 -63
16 -89 -7z"/>
<path d="M6762 334 c-24 -17 -30 -62 -10 -82 31 -31 108 0 108 43 0 25 -33 55
-60 55 -9 0 -26 -7 -38 -16z"/>
<path d="M5625 280 c-25 -28 -8 -45 38 -36 38 7 63 29 52 46 -11 18 -71 11
-90 -10z"/>
</g>
</svg>
